<?xml version="1.0" encoding="UTF-8" standalone="no"?>
<svg
   version="1.2"
   width="48"
   height="48"
   viewBox="-0.5 0 48 48"
   id="svg2"
   inkscape:version="1.3.1 (91b66b0783, 2023-11-16)"
   sodipodi:docname="Croche.svg"
   inkscape:export-filename="Croche.png"
   inkscape:export-xdpi="96"
   inkscape:export-ydpi="96"
   xmlns:inkscape="http://www.inkscape.org/namespaces/inkscape"
   xmlns:sodipodi="http://sodipodi.sourceforge.net/DTD/sodipodi-0.dtd"
   xmlns="http://www.w3.org/2000/svg"
   xmlns:svg="http://www.w3.org/2000/svg"
   xmlns:rdf="http://www.w3.org/1999/02/22-rdf-syntax-ns#"
   xmlns:cc="http://creativecommons.org/ns#"
   xmlns:dc="http://purl.org/dc/elements/1.1/">
  <metadata
     id="metadata130">
    <rdf:RDF>
      <cc:Work
         rdf:about="">
        <dc:format>image/svg+xml</dc:format>
        <dc:type
           rdf:resource="http://purl.org/dc/dcmitype/StillImage" />
        <cc:license
           rdf:resource="http://creativecommons.org/publicdomain/zero/1.0/" />
      </cc:Work>
      <cc:License
         rdf:about="http://creativecommons.org/publicdomain/zero/1.0/">
        <cc:permits
           rdf:resource="http://creativecommons.org/ns#Reproduction" />
        <cc:permits
           rdf:resource="http://creativecommons.org/ns#Distribution" />
        <cc:permits
           rdf:resource="http://creativecommons.org/ns#DerivativeWorks" />
      </cc:License>
    </rdf:RDF>
  </metadata>
  <defs
     id="defs128" />
  <sodipodi:namedview
     pagecolor="#ffffff"
     bordercolor="#666666"
     borderopacity="1"
     objecttolerance="10"
     gridtolerance="10"
     guidetolerance="10"
     inkscape:pageopacity="0"
     inkscape:pageshadow="2"
     inkscape:window-width="1920"
     inkscape:window-height="1017"
     id="namedview126"
     showgrid="false"
     fit-margin-top="0"
     fit-margin-left="0"
     fit-margin-right="0"
     fit-margin-bottom="0"
     inkscape:zoom="7.1762364"
     inkscape:cx="0.62706964"
     inkscape:cy="18.045671"
     inkscape:window-x="-8"
     inkscape:window-y="-8"
     inkscape:window-maximized="1"
     inkscape:current-layer="svg2"
     inkscape:showpageshadow="2"
     inkscape:pagecheckerboard="false"
     inkscape:deskcolor="#d1d1d1"
     inkscape:document-units="mm" />
  <!-- Page: 1/1 -->
  <g
     id="g1"
     transform="matrix(10.665545,0,0,10.665545,17.466837,2.4619958)"
     style="stroke-width:0.0937602">
    <path
       d="m 0.1300001,4.0119997 h -0.064 v -1 h 0.064 c 0.392,-0.232 0.908,-0.592 0.908,-1.036 0,-0.228 -0.064,-0.448 -0.164,-0.652 -0.012,-0.064 0.04,-0.108 0.092,-0.108 0.028,0 0.06,0.012 0.08,0.044 0.1,0.224 0.16,0.468 0.16,0.716 0,0.816 -1.076,1.22 -1.076,2.036 z"
       id="path110"
       inkscape:connector-curvature="0"
       style="fill:currentColor;stroke-width:0.000375038" />
    <rect
       x="1.0238418e-07"
       y="0.73979968"
       width="0.13"
       height="3.3122001"
       ry="0.0037503946"
       id="rect112"
       style="fill:currentColor;stroke-width:0.0937602"
       rx="0.0037503946" />
    <a
       id="a114"
       transform="translate(-49.4661,-7.2933003)"
       style="stroke-width:0.0937602">
      <path
         transform="matrix(0.004,0,0,-0.004,49.4661,7.8453)"
         d="m 220,138 c 56,0 109,-29 109,-91 0,-72 -56,-121 -103,-149 -36,-21 -76,-36 -117,-36 -56,0 -109,29 -109,91 0,72 56,121 103,149 36,21 76,36 117,36 z"
         id="path116"
         inkscape:connector-curvature="0"
         style="fill:currentColor;stroke-width:0.0937602" />
    </a>
  </g>
</svg>
